<svg width="263" height="73" viewBox="0 0 263 73" fill="none" xmlns="http://www.w3.org/2000/svg">
<g filter="url(#filter0_d_579_21)">
<rect x="4" width="255" height="65" fill="#422B1A" fill-opacity="0.76" shape-rendering="crispEdges"/>
</g>
<path d="M41.4219 36.8438C41.4219 33.1042 42.3958 30.1354 44.3438 27.9375C46.2604 25.7812 48.7969 24.7031 51.9531 24.7031C54.974 24.7031 57.4792 25.8125 59.4688 28.0312C61.4583 30.25 62.4531 33.099 62.4531 36.5781C62.4531 39.9948 61.4271 42.8281 59.375 45.0781C57.3646 47.2865 54.8854 48.3906 51.9375 48.3906C48.9271 48.3906 46.4062 47.2292 44.375 44.9062C42.4062 42.6562 41.4219 39.9688 41.4219 36.8438ZM44.4219 36.8906C44.4219 39.5885 45.125 41.7396 46.5312 43.3438C47.9062 44.9167 49.7031 45.7031 51.9219 45.7031C54.1823 45.7031 55.9844 44.9271 57.3281 43.375C58.7448 41.7396 59.4531 39.4688 59.4531 36.5625C59.4531 33.8021 58.7604 31.5833 57.375 29.9062C55.9896 28.2292 54.1875 27.3906 51.9688 27.3906C49.7396 27.3906 47.974 28.1042 46.6719 29.5312C45.1719 31.1667 44.4219 33.6198 44.4219 36.8906ZM70.7969 48V27.7969H63.5469V25.0938H80.9844V27.7969H73.7031V48H70.7969ZM83.6406 48V25.0938H100.891V48H97.9688V27.7969H86.5469V48H83.6406ZM111.156 35.0625C111.719 35.5 112.26 35.8073 112.781 35.9844C113.312 36.1615 113.854 36.25 114.406 36.25C114.938 36.25 115.453 36.1562 115.953 35.9688C116.453 35.7708 116.896 35.5 117.281 35.1562C117.677 34.8125 117.99 34.4062 118.219 33.9375C118.458 33.4688 118.578 32.9583 118.578 32.4062C118.578 31.6354 118.427 30.9635 118.125 30.3906C117.833 29.8073 117.443 29.3281 116.953 28.9531C116.474 28.5677 115.917 28.2812 115.281 28.0938C114.656 27.8958 114.005 27.7969 113.328 27.7969H108.484V48H105.578V25.0938H113.094C114.469 25.0938 115.682 25.2969 116.734 25.7031C117.797 26.1094 118.682 26.651 119.391 27.3281C120.109 27.9948 120.651 28.7656 121.016 29.6406C121.391 30.5052 121.578 31.3958 121.578 32.3125C121.578 33.4167 121.375 34.3854 120.969 35.2188C120.562 36.0417 120.026 36.7344 119.359 37.2969C118.703 37.849 117.943 38.2656 117.078 38.5469C116.224 38.8177 115.344 38.9531 114.438 38.9531C113.635 38.9531 112.859 38.8281 112.109 38.5781C111.359 38.3281 110.615 37.9323 109.875 37.3906L111.156 35.0625ZM139.016 48C138.797 46.8958 138.547 45.7552 138.266 44.5781C137.984 43.401 137.625 42.2292 137.188 41.0625H126.734C126.339 42.2292 125.974 43.3854 125.641 44.5312C125.318 45.6771 125.047 46.8333 124.828 48H121.891C122.13 46.8229 122.396 45.6615 122.688 44.5156C122.979 43.3698 123.297 42.224 123.641 41.0781C123.766 40.651 123.896 40.2344 124.031 39.8281C124.167 39.4115 124.307 38.9896 124.453 38.5625C125.224 36.3021 126.083 34.0625 127.031 31.8438C127.99 29.625 129.047 27.375 130.203 25.0938H133.625C134.802 27.3854 135.859 29.651 136.797 31.8906C137.745 34.1302 138.599 36.3802 139.359 38.6406C139.505 39.0573 139.646 39.474 139.781 39.8906C139.917 40.3073 140.047 40.724 140.172 41.1406C140.526 42.2969 140.854 43.4427 141.156 44.5781C141.458 45.7135 141.745 46.8542 142.016 48H139.016ZM136.469 38.5938C136.094 37.5833 135.745 36.6458 135.422 35.7812C135.109 34.9167 134.781 34.0729 134.438 33.25C134.094 32.4167 133.719 31.5729 133.312 30.7188C132.917 29.8542 132.453 28.9219 131.922 27.9219C131.391 28.9219 130.922 29.875 130.516 30.7812C130.109 31.6875 129.729 32.5729 129.375 33.4375C129.021 34.2917 128.688 35.1458 128.375 36C128.073 36.8438 127.766 37.7083 127.453 38.5938H136.469ZM144.359 48V25.0938H152.453C153.589 25.0938 154.599 25.2552 155.484 25.5781C156.38 25.901 157.13 26.3333 157.734 26.875C158.339 27.4062 158.797 28.026 159.109 28.7344C159.432 29.4427 159.594 30.1823 159.594 30.9531C159.594 31.9948 159.375 32.9375 158.938 33.7812C158.51 34.625 157.807 35.3021 156.828 35.8125L156.844 35.8594C157.406 36.099 157.906 36.4115 158.344 36.7969C158.792 37.1823 159.161 37.6094 159.453 38.0781C159.755 38.5469 159.984 39.0417 160.141 39.5625C160.297 40.0729 160.375 40.5677 160.375 41.0469C160.375 42.1094 160.182 43.0729 159.797 43.9375C159.422 44.7917 158.891 45.5208 158.203 46.125C157.526 46.7188 156.714 47.1823 155.766 47.5156C154.818 47.8385 153.771 48 152.625 48H144.359ZM149.719 34.7188H152.797C153.453 34.7188 154.026 34.6302 154.516 34.4531C155.005 34.276 155.411 34.0312 155.734 33.7188C156.068 33.4062 156.312 33.0312 156.469 32.5938C156.635 32.1562 156.719 31.6771 156.719 31.1562C156.719 30.6146 156.604 30.1354 156.375 29.7188C156.156 29.3021 155.833 28.9531 155.406 28.6719C154.99 28.3802 154.474 28.1615 153.859 28.0156C153.255 27.8698 152.573 27.7969 151.812 27.7969H147.266V45.2969H152.625C153.198 45.2969 153.766 45.224 154.328 45.0781C154.901 44.9323 155.411 44.6979 155.859 44.375C156.307 44.0521 156.667 43.6302 156.938 43.1094C157.219 42.5885 157.359 41.9531 157.359 41.2031C157.359 40.5885 157.25 40.0469 157.031 39.5781C156.812 39.1094 156.505 38.7135 156.109 38.3906C155.714 38.0677 155.234 37.8281 154.672 37.6719C154.12 37.5052 153.505 37.4219 152.828 37.4219H149.719V34.7188ZM166.766 25.0938V43.875H166.781C167.844 42.4583 168.896 40.9792 169.938 39.4375C170.99 37.8958 172.005 36.3281 172.984 34.7344C173.974 33.1406 174.917 31.5365 175.812 29.9219C176.719 28.2969 177.557 26.6875 178.328 25.0938H181.312V48H178.516V30.1719H178.5C176.958 33.2448 175.214 36.25 173.266 39.1875C171.318 42.1146 169.219 45.0521 166.969 48H163.984V25.0938H166.766ZM191.234 48V27.7969H183.984V25.0938H201.422V27.7969H194.141V48H191.234ZM206.984 45.2969H212.344C213.021 45.2969 213.646 45.2292 214.219 45.0938C214.802 44.9479 215.302 44.7135 215.719 44.3906C216.146 44.0677 216.479 43.6458 216.719 43.125C216.958 42.6042 217.078 41.9635 217.078 41.2031C217.078 40.4427 216.969 39.8177 216.75 39.3281C216.531 38.8385 216.224 38.4531 215.828 38.1719C215.432 37.8906 214.953 37.6979 214.391 37.5938C213.839 37.4792 213.224 37.4219 212.547 37.4219H209.438V34.7188H212.516C213.609 34.7188 214.62 34.849 215.547 35.1094C216.474 35.3698 217.271 35.7604 217.938 36.2812C218.615 36.8021 219.141 37.4583 219.516 38.25C219.901 39.0417 220.094 39.974 220.094 41.0469C220.094 42.1198 219.901 43.0885 219.516 43.9531C219.141 44.8073 218.609 45.5365 217.922 46.1406C217.245 46.7344 216.427 47.1927 215.469 47.5156C214.521 47.8385 213.479 48 212.344 48H204.078V25.0938H206.984V45.2969Z" fill="white"/>
<defs>
<filter id="filter0_d_579_21" x="0" y="0" width="263" height="73" filterUnits="userSpaceOnUse" color-interpolation-filters="sRGB">
<feFlood flood-opacity="0" result="BackgroundImageFix"/>
<feColorMatrix in="SourceAlpha" type="matrix" values="0 0 0 0 0 0 0 0 0 0 0 0 0 0 0 0 0 0 127 0" result="hardAlpha"/>
<feOffset dy="4"/>
<feGaussianBlur stdDeviation="2"/>
<feComposite in2="hardAlpha" operator="out"/>
<feColorMatrix type="matrix" values="0 0 0 0 0 0 0 0 0 0 0 0 0 0 0 0 0 0 0.65 0"/>
<feBlend mode="normal" in2="BackgroundImageFix" result="effect1_dropShadow_579_21"/>
<feBlend mode="normal" in="SourceGraphic" in2="effect1_dropShadow_579_21" result="shape"/>
</filter>
</defs>
</svg>
